<svg viewBox="0 0 240 196" xmlns="http://www.w3.org/2000/svg" role="img" aria-label="OpenBI vertical · color · light surface">
  <title>OpenBI — vertical lockup · color · for light surfaces</title>
  <defs>
    <clipPath id="cube-clip">
      <polygon points="100,63 132.04,81.5 132.04,118.5 100,137 67.96,118.5 67.96,81.5"></polygon>
    </clipPath>
  </defs>
  <g transform="translate(60 10) scale(1.0)">
    <polygon points="100,63 132.04,81.5 100,100 67.96,81.5" fill="#F97316" transform="translate(-40 -32)"></polygon>
    <polygon points="67.96,81.5 100,100 100,137 67.96,118.5" fill="#FB923C" transform="translate(-40 -32)"></polygon>
    <polygon points="132.04,81.5 132.04,118.5 100,137 100,100" fill="#C2410C" transform="translate(-40 -32)"></polygon>
    <path d="M 67.96 81.5 L 100 100 L 132.04 81.5 M 100 100 L 100 137" fill="none" stroke="#FFFFFF" stroke-width="1.2" stroke-linejoin="miter" clip-path="url(#cube-clip)" transform="translate(-40 -32)"></path>
    <path d="M 100 40 L 48.04 70 L 48.04 130 L 100 160 L 100 146 L 60.16 123 L 60.16 77 L 100 54 Z" fill="#64748B" transform="translate(-40 -32)"></path>
    <path d="M 100 40 L 151.96 70 L 151.96 130 L 100 160 L 100 146 L 139.84 123 L 139.84 77 L 100 54 Z" fill="#0F172A" transform="translate(-40 -32)"></path>
  </g>
  <g aria-label="OpenBI"><path d="M68.55 159.5Q68.55 165.72 66.03 170.51Q63.51 175.3 59.03 177.98Q54.55 180.67 48.67 180.67Q42.85 180.67 38.37 177.98Q33.89 175.3 31.39 170.54Q28.9 165.78 28.9 159.56Q28.9 153.29 31.42 148.5Q33.94 143.71 38.39 141.02Q42.85 138.34 48.73 138.34Q54.61 138.34 59.06 141.02Q63.51 143.71 66.03 148.47Q68.55 153.23 68.55 159.5ZM61.05 159.5Q61.05 155.14 59.53 151.94Q58.02 148.75 55.28 146.99Q52.53 145.22 48.73 145.22Q44.97 145.22 42.2 146.99Q39.43 148.75 37.92 151.94Q36.41 155.14 36.41 159.5Q36.41 163.87 37.92 167.09Q39.43 170.31 42.2 172.05Q44.97 173.78 48.73 173.78Q52.53 173.78 55.28 172.02Q58.02 170.26 59.53 167.04Q61.05 163.82 61.05 159.5Z M72.47 192.82L72.47 152.34L78.8 152.34L79.25 156.54Q80.48 154.13 83.06 152.81Q85.63 151.5 88.71 151.5Q92.69 151.5 95.57 153.29Q98.46 155.08 100.08 158.27Q101.71 161.46 101.71 165.83Q101.71 170.14 100.19 173.5Q98.68 176.86 95.8 178.8Q92.91 180.73 88.77 180.73Q85.69 180.73 83.14 179.55Q80.59 178.38 79.31 176.3L79.31 192.82ZM79.36 166.17Q79.36 168.63 80.31 170.54Q81.27 172.44 83.03 173.53Q84.79 174.62 87.15 174.62Q89.55 174.62 91.29 173.53Q93.03 172.44 93.92 170.54Q94.82 168.63 94.82 166.17Q94.82 163.7 93.92 161.8Q93.03 159.9 91.29 158.8Q89.55 157.71 87.15 157.71Q84.79 157.71 83.03 158.78Q81.27 159.84 80.31 161.74Q79.36 163.65 79.36 166.17Z M117.7 180.73Q113.61 180.73 110.44 178.85Q107.28 176.98 105.49 173.7Q103.7 170.42 103.7 166.17Q103.7 161.86 105.43 158.55Q107.17 155.25 110.3 153.37Q113.44 151.5 117.47 151.5Q121.67 151.5 124.7 153.26Q127.72 155.02 129.37 158.16Q131.02 161.3 131.02 165.66L131.02 167.74L107.28 167.79L107.39 163.42L124.25 163.42Q124.25 160.57 122.43 158.83Q120.61 157.1 117.53 157.1Q115.12 157.1 113.47 158.1Q111.82 159.11 110.98 161.13Q110.14 163.14 110.14 166.06Q110.14 170.54 112.07 172.83Q114 175.13 117.81 175.13Q120.61 175.13 122.43 174.06Q124.25 173 124.81 171.04L131.14 171.04Q130.24 175.58 126.68 178.15Q123.13 180.73 117.7 180.73Z M141.56 180L134.73 180L134.73 152.34L141.06 152.34L141.62 155.92Q142.91 153.85 145.29 152.67Q147.67 151.5 150.47 151.5Q155.67 151.5 158.33 154.58Q160.99 157.66 160.99 162.98L160.99 180L154.16 180L154.16 164.6Q154.16 161.13 152.59 159.42Q151.03 157.71 148.34 157.71Q145.15 157.71 143.35 159.73Q141.56 161.74 141.56 165.1Z" fill="#0F172A"></path><path d="M174.1 139.06L174.1 180L166.93 180L166.93 139.06ZM183.17 162.58L171.92 162.58L171.92 156.54L182.78 156.54Q185.75 156.54 187.32 155.05Q188.88 153.57 188.88 150.82Q188.88 148.19 187.26 146.79Q185.64 145.39 182.56 145.39L171.69 145.39L171.69 139.06L183.17 139.06Q189.28 139.06 192.75 142.03Q196.22 145 196.22 150.15Q196.22 153.85 194.43 156.34Q192.64 158.83 189.11 159.95L189.11 159.17Q192.92 160.06 194.88 162.53Q196.84 164.99 196.84 168.91Q196.84 172.38 195.27 174.88Q193.7 177.37 190.7 178.68Q187.71 180 183.51 180L171.69 180L171.69 173.67L183.17 173.67Q186.25 173.67 187.88 172.22Q189.5 170.76 189.5 168.02Q189.5 165.44 187.85 164.01Q186.2 162.58 183.17 162.58Z M208.77 139.06L208.77 180L201.6 180L201.6 139.06Z" fill="#F97316"></path></g>
</svg>