<svg viewBox="0 0 340 120" xmlns="http://www.w3.org/2000/svg" role="img" aria-label="OpenBI horizontal · monochrome white">
  <title>OpenBI — horizontal lockup · monochrome white (3-tone mark preserves 3D depth on dark surface)</title>
  <g transform="translate(10 6) scale(0.785)">
    <polygon points="100,63 132.04,81.5 100,100 67.96,81.5" fill="#FFFFFF" transform="translate(-40 -32)"></polygon>
    <polygon points="67.96,81.5 100,100 100,137 67.96,118.5" fill="#CCCCCC" transform="translate(-40 -32)"></polygon>
    <polygon points="132.04,81.5 132.04,118.5 100,137 100,100" fill="#999999" transform="translate(-40 -32)"></polygon>
    <path d="M 100 40 L 48.04 70 L 48.04 130 L 100 160 L 100 146 L 60.16 123 L 60.16 77 L 100 54 Z" fill="#AAAAAA" transform="translate(-40 -32)"></path>
    <path d="M 100 40 L 151.96 70 L 151.96 130 L 100 160 L 100 146 L 139.84 123 L 139.84 77 L 100 54 Z" fill="#FFFFFF" transform="translate(-40 -32)"></path>
  </g>
  <g aria-label="OpenBI"><path d="M168.8 53.11Q168.8 60.66 165.74 66.47Q162.68 72.29 157.24 75.55Q151.8 78.82 144.66 78.82Q137.58 78.82 132.14 75.55Q126.7 72.29 123.68 66.51Q120.65 60.73 120.65 53.18Q120.65 45.56 123.71 39.75Q126.77 33.94 132.18 30.67Q137.58 27.41 144.72 27.41Q151.86 27.41 157.27 30.67Q162.68 33.94 165.74 39.72Q168.8 45.5 168.8 53.11ZM159.68 53.11Q159.68 47.81 157.85 43.93Q156.01 40.06 152.68 37.91Q149.35 35.77 144.72 35.77Q140.17 35.77 136.8 37.91Q133.44 40.06 131.6 43.93Q129.76 47.81 129.76 53.11Q129.76 58.42 131.6 62.33Q133.44 66.24 136.8 68.34Q140.17 70.45 144.72 70.45Q149.35 70.45 152.68 68.31Q156.01 66.17 157.85 62.26Q159.68 58.35 159.68 53.11Z M173.45 93.57L173.45 44.41L181.13 44.41L181.67 49.51Q183.17 46.58 186.3 44.99Q189.43 43.39 193.17 43.39Q197.99 43.39 201.5 45.56Q205 47.74 206.97 51.62Q208.94 55.49 208.94 60.8Q208.94 66.03 207.11 70.11Q205.27 74.19 201.77 76.54Q198.27 78.88 193.23 78.88Q189.49 78.88 186.4 77.46Q183.31 76.03 181.74 73.51L181.74 93.57ZM181.81 61.2Q181.81 64.2 182.97 66.51Q184.12 68.82 186.26 70.15Q188.41 71.47 191.26 71.47Q194.19 71.47 196.29 70.15Q198.4 68.82 199.49 66.51Q200.58 64.2 200.58 61.2Q200.58 58.21 199.49 55.9Q198.4 53.59 196.29 52.26Q194.19 50.94 191.26 50.94Q188.41 50.94 186.26 52.23Q184.12 53.52 182.97 55.83Q181.81 58.14 181.81 61.2Z M228.25 78.88Q223.28 78.88 219.44 76.61Q215.6 74.33 213.42 70.35Q211.25 66.37 211.25 61.2Q211.25 55.97 213.35 51.96Q215.46 47.94 219.27 45.67Q223.08 43.39 227.97 43.39Q233.07 43.39 236.75 45.53Q240.42 47.67 242.42 51.48Q244.43 55.29 244.43 60.59L244.43 63.11L215.6 63.18L215.73 57.87L236.2 57.87Q236.2 54.4 233.99 52.3Q231.78 50.19 228.04 50.19Q225.12 50.19 223.11 51.41Q221.11 52.64 220.09 55.08Q219.07 57.53 219.07 61.07Q219.07 66.51 221.41 69.3Q223.76 72.08 228.38 72.08Q231.78 72.08 233.99 70.79Q236.2 69.5 236.88 67.12L244.57 67.12Q243.48 72.63 239.16 75.76Q234.84 78.88 228.25 78.88Z M257.11 78L248.81 78L248.81 44.41L256.5 44.41L257.18 48.76Q258.74 46.24 261.63 44.82Q264.52 43.39 267.92 43.39Q274.25 43.39 277.48 47.13Q280.71 50.87 280.71 57.33L280.71 78L272.41 78L272.41 59.3Q272.41 55.08 270.51 53.01Q268.6 50.94 265.34 50.94Q261.46 50.94 259.29 53.38Q257.11 55.83 257.11 59.91Z M296.51 28.29L296.51 78L287.8 78L287.8 28.29ZM307.52 56.85L293.86 56.85L293.86 49.51L307.05 49.51Q310.65 49.51 312.56 47.71Q314.46 45.9 314.46 42.57Q314.46 39.38 312.49 37.68Q310.52 35.98 306.78 35.98L293.58 35.98L293.58 28.29L307.52 28.29Q314.94 28.29 319.15 31.9Q323.37 35.5 323.37 41.76Q323.37 46.24 321.19 49.27Q319.02 52.3 314.73 53.66L314.73 52.7Q319.36 53.79 321.74 56.78Q324.12 59.78 324.12 64.54Q324.12 68.75 322.21 71.78Q320.31 74.8 316.67 76.4Q313.03 78 307.93 78L293.58 78L293.58 70.32L307.52 70.32Q311.26 70.32 313.24 68.55Q315.21 66.78 315.21 63.45Q315.21 60.32 313.2 58.59Q311.2 56.85 307.52 56.85Z M338.49 28.29L338.49 78L329.78 78L329.78 28.29Z" fill="#F1F5F9"></path></g>
</svg>